<svg version="1.1" id="Capa_1" xmlns="http://www.w3.org/2000/svg" xmlns:xlink="http://www.w3.org/1999/xlink" x="0px" y="0px" viewBox="0 0 1200 1200" enable-background="new 0 0 1200 1200" xml:space="preserve">
<path fill="#252859" d="M980.692,195.88V75.572c0-17.652-17.473-29.986-34.105-24.075L392.806,248.28&#10;&#9;c-10.189,3.621-16.995,13.263-16.995,24.075v606.576c0,18.205-13.75,33.307-31.831,35.42&#10;&#9;c-87.195,10.188-122.056,58.295-124.574,104.971c-3.143,58.232,45.729,124.623,130.177,130.341&#10;&#9;c38.93,2.659,76.885-10.498,105.091-37.667c27.068-26.072,42.591-62.581,42.591-100.174V398.452&#10;&#9;c0-10.813,6.807-20.455,16.995-24.075l310.922-110.485c16.633-5.91,34.105,6.424,34.105,24.075v419.271&#10;&#9;c0,18.204-13.75,33.307-31.831,35.42c-87.193,10.188-122.053,58.294-124.574,104.968c-3.143,58.235,45.73,124.626,130.179,130.344&#10;&#9;c38.946,2.645,76.877-10.498,105.087-37.67c27.07-26.072,42.594-62.588,42.591-100.181L980.692,195.88z M389.941,1091.68&#10;&#9;c-14.492,6.992-31.139,9.024-47.269,6.374c-37.569-6.174-72.407-39.944-62.888-79.589c3.756-15.643,15.136-32.015,29.17-40.292&#10;&#9;c10.377-6.12,23.871-7.869,32.575,2.157c9.98,11.495,7.728,29.324,3.495,42.65c-9.101,28.649,8.601,50.429,43.078,56.441&#10;&#9;C394.357,1080.51,395.66,1088.921,389.941,1091.68z M875.305,919.398c-14.492,6.992-31.14,9.024-47.269,6.374&#10;&#9;c-37.569-6.173-72.408-39.944-62.888-79.589c3.756-15.643,15.136-32.015,29.17-40.292c10.377-6.12,23.871-7.869,32.575,2.157&#10;&#9;c9.98,11.495,7.728,29.324,3.495,42.65c-9.101,28.649,8.601,50.429,43.078,56.441C879.721,908.229,881.024,916.639,875.305,919.398z&#10;&#9;" style="fill: rgb(48, 53, 156);"/>
</svg>